<?xml version="1.0" standalone="no"?>
<!DOCTYPE svg PUBLIC "-//W3C//DTD SVG 20010904//EN"
 "http://www.w3.org/TR/2001/REC-SVG-20010904/DTD/svg10.dtd">
<svg version="1.0" xmlns="http://www.w3.org/2000/svg"
 width="70.000000pt" height="70.000000pt" viewBox="0 0 70.000000 70.000000"
 preserveAspectRatio="xMidYMid meet">
<metadata>
Created by potrace 1.11, written by Peter Selinger 2001-2013
</metadata>
<g transform="translate(0.000000,70.000000) scale(0.100000,-0.100000)"
fill="#000000" stroke="none">
<path d="M223 674 c-79 -33 -154 -104 -190 -181 -24 -49 -28 -71 -28 -143 0
-104 29 -174 100 -245 70 -70 142 -100 240 -100 93 1 111 5 173 41 106 61 173
168 180 288 15 246 -248 435 -475 340z m242 -68 c68 -32 111 -75 141 -140 50
-110 27 -235 -59 -318 -134 -130 -362 -94 -446 70 -25 50 -41 138 -31 173 5
16 7 29 4 29 -10 0 47 97 74 127 34 36 95 70 143 78 18 3 35 7 36 9 10 9 95
-9 138 -28z"/>
<path d="M391 491 l-134 -47 -48 -137 c-27 -75 -45 -138 -41 -141 5 -3 68 17
142 43 l133 48 42 119 c55 156 58 164 48 163 -4 0 -68 -22 -142 -48z m39 -70
c0 -5 -9 -33 -21 -63 -19 -50 -23 -55 -67 -68 -26 -7 -53 -15 -59 -18 -18 -6
-16 9 7 70 18 49 24 54 67 69 57 20 73 22 73 10z"/>
</g>
</svg>
